<?xml version="1.0"?>
<svg xmlns="http://www.w3.org/2000/svg" xmlns:xlink="http://www.w3.org/1999/xlink" viewBox="0 0 512 512" width="512" height="512"><defs><linearGradient id="linear-gradient" x1="76" y1="436" x2="436" y2="76" gradientUnits="userSpaceOnUse"><stop offset="0" stop-color="#41dfd0"/><stop offset="1" stop-color="#ee83ef"/></linearGradient></defs><g id="gradient"><path d="M288,280V232a8,8,0,0,0-8-8H232a8,8,0,0,0-8,8v48a8,8,0,0,0,8,8h48A8,8,0,0,0,288,280Zm-16-8H240V240h32ZM160,168V344a8,8,0,0,0,8,8H344a8,8,0,0,0,8-8V168a8,8,0,0,0-8-8H168A8,8,0,0,0,160,168Zm16,8H336V336H176Zm56,32H216V192h16Zm32,0H248V192h16Zm16-16h16v16H280ZM216,304h16v16H216Zm32,0h16v16H248Zm32,0h16v16H280Zm24-88h16v16H304Zm0,32h16v16H304Zm0,32h16v16H304ZM192,216h16v16H192Zm0,32h16v16H192Zm0,32h16v16H192Zm-72,0a24,24,0,1,0-22.624-32H16v16H97.376A24.038,24.038,0,0,0,120,280Zm0-32a8,8,0,1,1-8,8A8.009,8.009,0,0,1,120,248ZM44.687,152H16V136H48a8,8,0,0,1,5.657,2.343L83.313,168H104v16H80a8,8,0,0,1-5.657-2.343ZM120,168h16v16H120Zm-16,48H16V200h88Zm16-16h16v16H120ZM48,376H16V360H44.687l29.656-29.657A8,8,0,0,1,80,328h24v16H83.313L53.657,373.657A8,8,0,0,1,48,376Zm72-48h16v16H120Zm-16-16H16V296h88Zm32,0H120V296h16ZM360,16h16V48a8,8,0,0,1-2.343,5.657L344,83.313V104H328V80a8,8,0,0,1,2.343-5.657L360,44.687ZM328,120h16v16H328ZM248,16V97.376a24,24,0,1,0,16,0V16Zm8,112a8,8,0,1,1,8-8A8.009,8.009,0,0,1,256,128Zm56-24H296V16h16Zm-16,16h16v16H296ZM152,16V44.687l29.657,29.656A8,8,0,0,1,184,80v24H168V83.313L138.343,53.657A8,8,0,0,1,136,48V16Zm32,104v16H168V120Zm32-16H200V16h16Zm-16,16h16v16H200ZM152,496H136V464a8,8,0,0,1,2.343-5.657L168,428.687V408h16v24a8,8,0,0,1-2.343,5.657L152,467.313Zm32-104H168V376h16Zm80,104V414.624a24,24,0,1,0-16,0V496Zm-8-112a8,8,0,1,1-8,8A8.009,8.009,0,0,1,256,384Zm-56,24h16v88H200Zm16-16H200V376h16ZM360,496V467.313l-29.657-29.656A8,8,0,0,1,328,432V408h16v20.687l29.657,29.656A8,8,0,0,1,376,464v32ZM344,392H328V376h16Zm-48,16h16v88H296Zm16-16H296V376h16Zm80-160a24,24,0,1,0,22.624,32H496V248H414.624A24.038,24.038,0,0,0,392,232Zm0,32a8,8,0,1,1,8-8A8.009,8.009,0,0,1,392,264Zm72-128h32v16H467.313l-29.656,29.657A8,8,0,0,1,432,184H408V168h20.687l29.656-29.657A8,8,0,0,1,464,136Zm-72,48H376V168h16Zm16,16h88v16H408Zm-32,0h16v16H376Zm91.313,160H496v16H464a8,8,0,0,1-5.657-2.343L428.687,344H408V328h24a8,8,0,0,1,5.657,2.343ZM376,328h16v16H376Zm32-32h88v16H408Zm-16,16H376V296h16ZM128,120h24v16H136v16H120V128A8,8,0,0,1,128,120Zm-8,240h16v16h16v16H128a8,8,0,0,1-8-8ZM392,152H376V136H360V120h24a8,8,0,0,1,8,8ZM376,360h16v24a8,8,0,0,1-8,8H360V376h16Z" style="fill:url(#linear-gradient)"/></g></svg>
