<svg height="440pt" viewBox="0 -28 440 440" width="440pt" xmlns="http://www.w3.org/2000/svg" xmlns:xlink="http://www.w3.org/1999/xlink"><linearGradient id="a" gradientUnits="userSpaceOnUse" x1="17.04" x2="414.96" y1="386.96" y2="-10.96"><stop offset="0" stop-color="#41dfd0"/><stop offset="1" stop-color="#ee83ef"/></linearGradient><path d="m80 360h-16v-16h16zm360-336v264c0 13.253906-10.746094 24-24 24h-120v21.785156l22.855469 38.09375c1.484375 2.472656 1.527343 5.550782.105469 8.058594-1.417969 2.511719-4.078126 4.0625-6.960938 4.0625h-128c-2.882812 0-5.542969-1.550781-6.960938-4.0625-1.421874-2.507812-1.378906-5.585938.105469-8.058594l22.855469-38.09375v-21.785156h-56v48c0 13.253906-10.746094 24-24 24h-96c-13.253906 0-24-10.746094-24-24v-200c0-13.253906 10.746094-24 24-24h32v-112c0-13.253906 10.746094-24 24-24h336c13.253906 0 24 10.746094 24 24zm-312 312h-112v24c0 4.417969 3.582031 8 8 8h96c4.417969 0 8-3.582031 8-8zm0-152h-112v136h112zm0-24c0-4.417969-3.582031-8-8-8h-96c-4.417969 0-8 3.582031-8 8v8h112zm16 0v-112h-40v88h16c13.253906 0 24 10.746094 24 24zm137.144531 180.121094c-.75-1.246094-1.144531-2.667969-1.144531-4.121094v-24h-64v24c0 1.453125-.394531 2.875-1.144531 4.121094l-16.71875 27.878906h99.726562zm142.855469-92.121094h-280v48h272c4.417969 0 8-3.582031 8-8zm0-224c0-4.417969-3.582031-8-8-8h-336c-4.417969 0-8 3.582031-8 8v112h16v-96c0-4.417969 3.582031-8 8-8h56c4.417969 0 8 3.582031 8 8v160c0 4.417969-3.582031 8-8 8h-8v24h280zm-168 240h-16v16h16zm-224-24c0-22.089844 17.910156-40 40-40s40 17.910156 40 40-17.910156 40-40 40c-22.082031-.027344-39.972656-17.917969-40-40zm16 0c0 13.253906 10.746094 24 24 24s24-10.746094 24-24-10.746094-24-24-24-24 10.746094-24 24zm64 48h-80v16h80zm208-184c0 39.765625-32.234375 72-72 72s-72-32.234375-72-72 32.234375-72 72-72c39.746094.042969 71.957031 32.253906 72 72zm-16 0c0-30.929688-25.070312-56-56-56s-56 25.070312-56 56 25.070312 56 56 56c30.910156-.039062 55.960938-25.089844 56-56zm-120 104h128v-16h-128zm224-168v72c0 4.417969-3.582031 8-8 8h-56c-4.417969 0-8-3.582031-8-8v-72c0-4.417969 3.582031-8 8-8h56c4.417969 0 8 3.582031 8 8zm-16 8h-40v56h40zm16 96v56c0 4.417969-3.582031 8-8 8h-56c-4.417969 0-8-3.582031-8-8v-56c0-4.417969 3.582031-8 8-8h56c4.417969 0 8 3.582031 8 8zm-16 8h-40v40h40zm0 0" fill="url(#a)"/></svg>