<svg height="512pt" viewBox="-62 0 512 512" width="512pt" xmlns="http://www.w3.org/2000/svg" xmlns:xlink="http://www.w3.org/1999/xlink"><linearGradient id="a" gradientTransform="matrix(.411515 0 0 -.411515 -61.793096 502.983665)" gradientUnits="userSpaceOnUse" x1="161.7249" x2="1082.4585" y1="-20.9087" y2="899.825"><stop offset="0" stop-color="#41dfd0"/><stop offset="1" stop-color="#ee83ef"/></linearGradient><path d="m282.484375 388.414062v17.65625h-44.140625v-17.65625zm70.617187 0h-17.652343v17.65625h17.652343zm-114.757812 70.621094v17.65625h44.140625v-17.65625zm97.105469 17.65625h17.652343v-17.65625h-17.652343zm44.136719 35.308594h-167.722657c-4.875 0-8.828125-3.953125-8.828125-8.828125v-141.242187c0-4.875 3.953125-8.828126 8.828125-8.828126h167.722657c4.875 0 8.828124 3.953126 8.828124 8.828126v141.242187c0 4.875-3.953124 8.828125-8.828124 8.828125zm-61.792969-141.242188v52.964844h52.964843v-52.964844zm-97.101563 52.964844h79.445313v-52.964844h-79.445313zm0 70.621094h79.445313v-52.964844h-79.445313zm150.066406 0v-52.964844h-52.964843v52.964844zm-335.449218-105.929688v17.65625h44.140625v-17.65625zm114.761718 0h-17.65625v17.65625h17.65625zm-114.761718 70.621094v17.65625h44.140625v-17.65625zm97.105468 17.65625h17.65625v-17.65625h-17.65625zm44.136719 35.308594h-167.722656c-4.875 0-8.828125-3.953125-8.828125-8.828125v-141.242187c0-4.875 3.953125-8.828126 8.828125-8.828126h167.722656c4.875 0 8.828125 3.953126 8.828125 8.828126v141.242187c0 4.875-3.953125 8.828125-8.828125 8.828125zm-61.792969-141.242188v52.964844h52.964844v-52.964844zm-97.101562 52.964844h79.449219v-52.964844h-79.449219zm0 70.621094h79.449219v-52.964844h-79.449219zm150.066406 0v-52.964844h-52.964844v52.964844zm123.585938-194.207031h17.65625v-17.652344c0-4.878906-3.953125-8.828125-8.828125-8.828125h-211.859375c-4.875 0-8.828125 3.949219-8.828125 8.828125v17.652344h17.65625v-8.828125h194.203125zm-194.203125 17.65625h-17.65625v17.65625h17.65625zm88.273437-132.414063h17.65625v-17.65625h-17.65625zm0-35.308594h17.65625v-17.65625h-17.65625zm17.65625 105.929688v-17.65625h-17.65625v17.65625zm88.273438 79.449219h17.65625v-17.65625h-17.65625zm-22.066406-114.757813h-150.070313c-46.316406-.03125-83.839844-37.597656-83.8125-83.914062.027344-44.800782 35.265625-81.667969 80.015625-83.722656 4.394531-30.421876 30.441406-53.0117192 61.175781-53.054688h35.3125c30.734375.0390625 56.785157 22.632812 61.171875 53.054688 46.269532 2.125 82.054688 41.351562 79.929688 87.621093-2.054688 44.75-38.921875 79.988281-83.722656 80.015625zm-150.070313-17.65625h150.070313c36.5625 0 66.207031-29.640625 66.207031-66.207031s-29.644531-66.207031-66.207031-66.207031h-4.414063c-4.875 0-8.828125-3.953125-8.828125-8.828125-.03125-24.363281-19.773438-44.109375-44.136719-44.136719h-35.3125c-24.363281.027344-44.109375 19.773438-44.136719 44.136719 0 4.875-3.953124 8.828125-8.828124 8.828125h-4.414063c-36.566406 0-66.207031 29.640625-66.207031 66.207031s29.644531 66.207031 66.207031 66.207031zm0 0" fill="url(#a)"/></svg>