<svg height="480pt" viewBox="0 0 480.17507 480" width="480pt" xmlns="http://www.w3.org/2000/svg" xmlns:xlink="http://www.w3.org/1999/xlink"><linearGradient id="a" gradientUnits="userSpaceOnUse" x1="25.887534" x2="454.287534" y1="454.287535" y2="25.887535"><stop offset="0" stop-color="#41dfd0"/><stop offset="1" stop-color="#ee83ef"/></linearGradient><path d="m88.085938 480.085938c34.144531.027343 65.214843-19.714844 79.695312-50.632813 14.484375-30.914063 9.761719-67.421875-12.109375-93.636719l18.070313-18.074218-11.3125-11.3125-18.070313 18.074218c-29.84375-24.886718-72.476563-27.253906-104.890625-5.824218-32.414062 21.429687-46.9375 61.582031-35.730469 98.789062s45.492188 62.65625 84.347657 62.617188zm0-160c39.765624 0 72 32.238281 72 72 0 39.765624-32.234376 72-72 72-39.761719 0-72-32.234376-72-72 .046874-39.746094 32.253906-71.953126 72-72zm0-144c20.574218.011718 40.496093-7.214844 56.273437-20.414063l18.070313 18.070313 11.3125-11.3125-18.070313-18.070313c26.339844-31.6875 27.152344-77.414063 1.949219-110.015625-25.203125-32.601562-69.660156-43.335938-106.960938-25.824219-37.300781 17.511719-57.441406 58.574219-48.460937 98.789063 8.984375 40.214844 44.683593 68.800781 85.886719 68.777344zm0-160c39.765624 0 72 32.238281 72 72 0 39.765624-32.234376 72-72 72-39.761719 0-72-32.234376-72-72 .046874-39.746094 32.253906-71.953126 72-72zm240 224c.03125-47.605469-37.804688-86.605469-85.390626-88.015626-47.585937-1.410156-87.667968 35.28125-90.457031 82.804688-2.789062 47.527344 32.722657 88.652344 80.144531 92.820312 2.550782.25 5.121094.390626 7.703126.390626 2.585937 0 5.152343-.140626 7.707031-.390626 45.398437-4.027343 80.230469-42.027343 80.292969-87.609374zm-48 57.859374c-9.738282 7.847657-21.570313 12.660157-34.023438 13.839844-1.976562.167969-3.957031.300782-5.976562.300782-2.015626 0-4-.132813-5.972657-.300782-12.453125-1.179687-24.285156-5.992187-34.027343-13.839844v-.53125c4.929687-14.125 12.976562-26.964843 23.546874-37.558593l5.144532-5.144531c3.121094-3.125 3.121094-8.1875 0-11.3125-6.25-6.246094-6.253906-16.378907-.003906-22.628907 6.25-6.246093 16.378906-6.246093 22.628906 0 6.246094 6.25 6.246094 16.382813-.003906 22.628907-3.121094 3.125-3.121094 8.1875 0 11.3125l5.144531 5.144531c10.566406 10.59375 18.613281 23.433593 23.542969 37.558593zm-12.230469-49.402343-.191407-.199219c7.914063-13.441406 4.980469-30.628906-6.9375-40.691406-11.921874-10.058594-29.355468-10.058594-41.277343 0-11.921875 10.0625-14.851563 27.25-6.9375 40.691406l-.191407.199219c-11.191406 11.300781-19.933593 24.792969-25.671874 39.625-26.011719-28.808594-24.507813-73.046875 3.398437-100.019531 27.910156-26.976563 72.171875-26.976563 100.078125 0 27.910156 26.972656 29.414062 71.210937 3.402344 100.019531-5.742188-14.832031-14.480469-28.324219-25.671875-39.625zm-179.769531-120.457031c22.09375 0 40-17.90625 40-40 0-22.089844-17.90625-40-40-40-22.089844 0-40 17.910156-40 40 .027343 22.082031 17.921874 39.976562 40 40zm0-64c13.257812 0 24 10.746093 24 24 0 13.257812-10.742188 24-24 24-13.253907 0-24-10.742188-24-24 0-13.253907 10.746093-24 24-24zm-32 368h64c4.417968 0 8-3.582032 8-8v-64c0-4.417969-3.582032-8-8-8h-64c-4.417969 0-8 3.582031-8 8v64c0 4.417968 3.582031 8 8 8zm8-64h48v48h-48zm334.945312-316c-1.539062-2.332032-4.148438-3.734376-6.945312-3.734376-2.792969 0-5.402344 1.402344-6.941407 3.734376l-32 56c-1.429687 2.480468-1.429687 5.53125.003907 8.007812 1.433593 2.476562 4.078124 4 6.9375 3.992188h64c2.863281.007812 5.507812-1.515626 6.941406-3.992188s1.433594-5.527344.003906-8.007812zm-25.160156 52 18.214844-31.871094 18.21875 31.871094zm18.214844 376c38.859374.039062 73.144531-25.410157 84.351562-62.617188s-3.316406-77.359375-35.730469-98.789062c-32.417969-21.429688-75.046875-19.0625-104.890625 5.824218l-18.074218-18.074218-11.3125 11.3125 18.074218 18.074218c-21.875 26.214844-26.59375 62.722656-12.113281 93.636719 14.484375 30.917969 45.554687 50.660156 79.695313 50.632813zm0-160c39.765624 0 72 32.238281 72 72 0 39.765624-32.234376 72-72 72-39.761719 0-72-32.234376-72-72 .046874-39.746094 32.253906-71.953126 72-72zm-4.796876 118.402343c2.84375 2.132813 6.753907 2.132813 9.597657 0l32-24c2.015625-1.511719 3.199219-3.882812 3.199219-6.402343v-32c0-2.515626-1.183594-4.886719-3.199219-6.398438l-32-24c-2.84375-2.132812-6.753907-2.132812-9.597657 0l-32 24c-2.015624 1.511719-3.203124 3.882812-3.203124 6.398438v32c0 2.519531 1.1875 4.890624 3.203124 6.402343zm-19.203124-58.402343 24-18 24 18v24l-24 18-24-18zm-288-164h-16v-16h16zm0 32h-16v-16h16zm-16 16h16v16h-16zm376-48h-16v-16h16zm-16 16h16v16h-16zm0 32h16v16h-16zm-208-224v16h-16v-16zm32 16h-16v-16h16zm32-16v16h-16v-16zm-80 400v-16h16v16zm32-16h16v16h-16zm32 16v-16h16v16zm128-440.0000005c-31.902344.0039063-61.308594 17.2773435-76.847657 45.1406245-15.539062 27.863282-14.777343 61.957032 1.984375 89.101563l-5.039062 32.535156c-.355469 2.308594.3125 4.65625 1.832031 6.429688 1.519531 1.773437 3.738281 2.792969 6.070313 2.792969.5625.003906 1.125-.054688 1.671874-.175782l34.699219-7.4375c11.203125 5.027344 23.347657 7.621094 35.628907 7.613282 48.601562 0 88-39.398438 88-88 0-48.597657-39.398438-88.0000005-88-88.0000005zm0 160.0000005c-10.808594-.003907-21.476563-2.464844-31.199219-7.199219-1.082031-.527344-2.273438-.800781-3.480469-.800781-.558594.003906-1.121094.0625-1.671875.175781l-25.941406 5.601562 3.726562-24.046875c.304688-1.984375-.144531-4.011718-1.265625-5.679687-18.371094-27.453125-15.707031-63.882813 6.460938-88.371094 22.167968-24.488281 58.15625-30.75 87.292968-15.1875 29.136719 15.558594 43.949219 48.949219 35.925782 80.992187-8.019532 32.042969-36.8125 54.519532-69.847656 54.515626zm0 0" fill="url(#a)"/></svg>